<svg xmlns="http://www.w3.org/2000/svg" xmlns:xlink="http://www.w3.org/1999/xlink" width="400" zoomAndPan="magnify" viewBox="0 0 300 187.499995" height="250" preserveAspectRatio="xMidYMid meet" version="1.0"><defs><g/><clipPath id="bcc48abc3e"><path d="M 0.398438 0 L 299.601562 0 L 299.601562 187 L 0.398438 187 Z M 0.398438 0 " clip-rule="nonzero"/></clipPath></defs><g clip-path="url(#bcc48abc3e)"><path fill="#ffffff" d="M 0.398438 0 L 299.601562 0 L 299.601562 187 L 0.398438 187 Z M 0.398438 0 " fill-opacity="1" fill-rule="nonzero"/><path fill="#ffffff" d="M 0.398438 0 L 299.601562 0 L 299.601562 187 L 0.398438 187 Z M 0.398438 0 " fill-opacity="1" fill-rule="nonzero"/></g><g fill="#30171d" fill-opacity="1"><g transform="translate(6.216929, 139.390533)"><g><path d="M 162.171875 -28.859375 C 163.046875 -28.710938 163.535156 -28.203125 163.640625 -27.328125 C 163.640625 -26.773438 163.476562 -26.398438 163.15625 -26.203125 C 162.832031 -26.003906 162.484375 -25.90625 162.109375 -25.90625 C 158.859375 -25.675781 155.613281 -25.488281 152.375 -25.34375 C 151.925781 -25.34375 151.488281 -25.316406 151.0625 -25.265625 C 150.332031 -25.265625 149.617188 -25.226562 148.921875 -25.15625 C 147.878906 -25.15625 146.859375 -25.109375 145.859375 -25.015625 C 145.085938 -25.015625 144.5625 -24.875 144.28125 -24.59375 C 144.007812 -24.320312 143.847656 -23.800781 143.796875 -23.03125 C 143.472656 -18.40625 143.148438 -13.796875 142.828125 -9.203125 C 142.328125 -0.421875 141.476562 8.3125 140.28125 17 C 140.050781 18.375 139.847656 19.742188 139.671875 21.109375 C 139.523438 22.753906 139.34375 24.378906 139.125 25.984375 C 138.84375 27.734375 137.851562 28.53125 136.15625 28.375 C 134.78125 28.25 134.054688 27.5625 133.984375 26.3125 C 134.109375 22.945312 134.285156 19.59375 134.515625 16.25 C 134.785156 12.40625 135.0625 8.5625 135.34375 4.71875 C 135.882812 -2.695312 136.367188 -10.132812 136.796875 -17.59375 C 136.847656 -18.519531 136.910156 -19.34375 136.984375 -20.0625 C 137.128906 -21.664062 137.132812 -22.804688 137 -23.484375 C 136.863281 -24.171875 136.382812 -24.570312 135.5625 -24.6875 C 134.738281 -24.800781 133.390625 -24.769531 131.515625 -24.59375 C 130.921875 -24.539062 130.296875 -24.515625 129.640625 -24.515625 C 121.503906 -24.066406 113.382812 -23.957031 105.28125 -24.1875 C 102.800781 -24.28125 101.664062 -24.851562 101.875 -25.90625 C 102.09375 -26.582031 102.453125 -26.988281 102.953125 -27.125 C 103.453125 -27.257812 103.976562 -27.289062 104.53125 -27.21875 C 104.75 -27.21875 104.9375 -27.21875 105.09375 -27.21875 C 109.332031 -27.4375 113.5625 -27.609375 117.78125 -27.734375 C 118.332031 -27.785156 118.878906 -27.8125 119.421875 -27.8125 C 121.617188 -27.863281 123.816406 -27.914062 126.015625 -27.96875 C 128.929688 -28.019531 131.835938 -28.109375 134.734375 -28.234375 C 135.734375 -28.234375 136.40625 -28.394531 136.75 -28.71875 C 137.101562 -29.039062 137.316406 -29.726562 137.390625 -30.78125 C 137.492188 -31.695312 137.570312 -32.628906 137.625 -33.578125 C 137.789062 -36.972656 137.953125 -40.34375 138.109375 -43.6875 C 138.453125 -49.726562 138.707031 -55.769531 138.875 -61.8125 C 139.039062 -67.851562 139.007812 -73.890625 138.78125 -79.921875 C 138.550781 -85.265625 138.175781 -90.582031 137.65625 -95.875 C 137.132812 -101.164062 136.320312 -106.457031 135.21875 -111.75 C 134.675781 -114.21875 133.96875 -116.648438 133.09375 -119.046875 C 131.84375 -122.296875 129.992188 -124.742188 127.546875 -126.390625 C 125.097656 -128.035156 122.164062 -128.945312 118.75 -129.125 C 116.5 -129.269531 114.265625 -129.203125 112.046875 -128.921875 C 109.828125 -128.648438 107.644531 -128.304688 105.5 -127.890625 C 95.9375 -125.960938 86.679688 -123.28125 77.734375 -119.84375 C 68.785156 -116.414062 60.054688 -112.367188 51.546875 -107.703125 C 41.992188 -102.535156 33.070312 -96.410156 24.78125 -89.328125 C 20.507812 -85.703125 16.691406 -81.644531 13.328125 -77.15625 C 11.398438 -74.613281 9.925781 -71.804688 8.90625 -68.734375 C 7.363281 -63.960938 8.765625 -60.316406 13.109375 -57.796875 C 17.328125 -55.378906 21.851562 -54.035156 26.6875 -53.765625 C 28.882812 -53.640625 31.082031 -53.578125 33.28125 -53.578125 C 34.425781 -53.578125 35.570312 -53.578125 36.71875 -53.578125 C 37.820312 -53.578125 38.921875 -53.5 40.015625 -53.34375 C 40.242188 -53.300781 40.4375 -53.175781 40.59375 -52.96875 C 40.757812 -52.769531 40.867188 -52.5625 40.921875 -52.34375 C 40.921875 -52.132812 40.847656 -51.914062 40.703125 -51.6875 C 40.566406 -51.46875 40.425781 -51.3125 40.28125 -51.21875 C 39.5625 -50.863281 38.8125 -50.660156 38.03125 -50.609375 C 37.613281 -50.609375 37.175781 -50.609375 36.71875 -50.609375 C 33.601562 -50.515625 30.476562 -50.519531 27.34375 -50.625 C 24.21875 -50.738281 21.117188 -51.125 18.046875 -51.78125 C 14.421875 -52.550781 11.039062 -53.921875 7.90625 -55.890625 C 2.632812 -59.285156 0.984375 -63.953125 2.953125 -69.890625 C 3.953125 -72.960938 5.414062 -75.796875 7.34375 -78.390625 C 11.457031 -83.929688 16.195312 -88.835938 21.5625 -93.109375 C 28 -98.398438 34.773438 -103.15625 41.890625 -107.375 C 49.003906 -111.59375 56.367188 -115.347656 63.984375 -118.640625 C 75.679688 -123.929688 87.757812 -127.910156 100.21875 -130.578125 C 103.789062 -131.398438 107.40625 -131.992188 111.0625 -132.359375 C 114.71875 -132.722656 118.378906 -132.71875 122.046875 -132.34375 C 126.660156 -131.894531 130.488281 -130.488281 133.53125 -128.125 C 136.582031 -125.769531 138.859375 -122.367188 140.359375 -117.921875 C 141.222656 -115.109375 141.914062 -112.242188 142.4375 -109.328125 C 142.96875 -106.421875 143.394531 -103.519531 143.71875 -100.625 C 144.644531 -93.414062 145.21875 -86.171875 145.4375 -78.890625 C 145.664062 -71.617188 145.644531 -64.316406 145.375 -56.984375 C 145.320312 -56.160156 145.296875 -55.296875 145.296875 -54.390625 C 144.898438 -46.984375 144.515625 -39.5 144.140625 -31.9375 C 144.140625 -31.757812 144.140625 -31.597656 144.140625 -31.453125 C 144.085938 -31.273438 144.0625 -31.097656 144.0625 -30.921875 C 144.007812 -29.503906 144.632812 -28.796875 145.9375 -28.796875 C 148.125 -28.835938 150.316406 -28.898438 152.515625 -28.984375 C 152.867188 -29.023438 153.234375 -29.046875 153.609375 -29.046875 C 154.328125 -29.046875 155.035156 -29.070312 155.734375 -29.125 C 156.960938 -29.175781 158.148438 -29.226562 159.296875 -29.28125 C 160.265625 -29.226562 161.222656 -29.085938 162.171875 -28.859375 Z M 162.171875 -28.859375 "/></g></g><g transform="translate(169.853122, 139.390533)"><g><path d="M 42.359375 -19.234375 C 41.671875 -17.140625 40.3125 -14.738281 38.28125 -12.03125 C 36.25 -9.320312 33.707031 -7.582031 30.65625 -6.8125 C 27.613281 -6.039062 24.984375 -6.144531 22.765625 -7.125 C 20.546875 -8.113281 19.320312 -10.753906 19.09375 -15.046875 C 16.570312 -10.160156 14.164062 -7.03125 11.875 -5.65625 C 9.59375 -4.28125 7.21875 -3.753906 4.75 -4.078125 C 1.957031 -4.523438 0.0703125 -5.609375 -0.90625 -7.328125 C -1.894531 -9.054688 -2.226562 -11.050781 -1.90625 -13.3125 C -1.582031 -15.570312 -0.894531 -17.734375 0.15625 -19.796875 C 0.976562 -21.347656 2.117188 -22.785156 3.578125 -24.109375 C 5.035156 -25.429688 6.5625 -26.46875 8.15625 -27.21875 C 10.132812 -28.21875 12.117188 -28.691406 14.109375 -28.640625 C 16.109375 -28.585938 18.242188 -27.925781 20.515625 -26.65625 C 20.566406 -26.601562 20.59375 -26.65625 20.59375 -26.8125 C 20.59375 -27.03125 20.644531 -27.304688 20.75 -27.640625 C 20.863281 -27.984375 21.0625 -28.253906 21.34375 -28.453125 C 22.09375 -29.003906 22.976562 -29.28125 24 -29.28125 C 25.019531 -29.28125 25.804688 -28.765625 26.359375 -27.734375 C 26.453125 -26.410156 26.3125 -24.726562 25.9375 -22.6875 C 25.113281 -18.195312 25.113281 -14.960938 25.9375 -12.984375 C 26.757812 -11.015625 28.210938 -10.097656 30.296875 -10.234375 C 32.390625 -10.367188 35.09375 -12.425781 38.40625 -16.40625 C 41.726562 -20.394531 43.046875 -21.335938 42.359375 -19.234375 Z M 5.5 -8.6875 C 6.644531 -7.863281 7.960938 -7.972656 9.453125 -9.015625 C 10.941406 -10.066406 12.367188 -11.550781 13.734375 -13.46875 C 15.109375 -15.394531 16.265625 -17.316406 17.203125 -19.234375 C 18.140625 -21.160156 18.65625 -22.585938 18.75 -23.515625 C 15.957031 -25.003906 13.5625 -25.253906 11.5625 -24.265625 C 9.570312 -23.285156 7.984375 -21.675781 6.796875 -19.4375 C 5.609375 -17.207031 4.898438 -15.035156 4.671875 -12.921875 C 4.453125 -10.816406 4.726562 -9.40625 5.5 -8.6875 Z M 5.5 -8.6875 "/></g></g><g transform="translate(209.536117, 139.390533)"><g><path d="M 19.421875 -15.1875 C 18.648438 -13.59375 17.332031 -11.820312 15.46875 -9.875 C 13.613281 -7.9375 11.503906 -6.703125 9.140625 -6.171875 C 6.785156 -5.648438 4.535156 -6.460938 2.390625 -8.609375 C 1.566406 -9.554688 0.960938 -10.644531 0.578125 -11.875 C 0.191406 -13.113281 0.0507812 -14.332031 0.15625 -15.53125 C 0.15625 -15.851562 0.15625 -16.265625 0.15625 -16.765625 C 0.15625 -18.046875 0.207031 -19.519531 0.3125 -21.1875 C 0.425781 -22.863281 0.675781 -24.375 1.0625 -25.71875 C 1.445312 -27.0625 2.050781 -27.875 2.875 -28.15625 C 5.25 -28.75 6.535156 -27.925781 6.734375 -25.6875 C 6.734375 -24.957031 6.707031 -24.234375 6.65625 -23.515625 C 6.613281 -23.140625 6.59375 -22.789062 6.59375 -22.46875 C 6.539062 -21.414062 6.488281 -20.363281 6.4375 -19.3125 C 6.4375 -18.488281 6.398438 -17.664062 6.328125 -16.84375 C 6.273438 -13.226562 7.082031 -11.078125 8.75 -10.390625 C 10.425781 -9.703125 12.335938 -10.429688 14.484375 -12.578125 C 16.628906 -14.722656 18.03125 -16.503906 18.6875 -17.921875 C 19.351562 -19.347656 19.835938 -19.648438 20.140625 -18.828125 C 20.441406 -18.003906 20.203125 -16.789062 19.421875 -15.1875 Z M 6.25 -35.859375 C 5.925781 -35.585938 5.53125 -35.414062 5.0625 -35.34375 C 4.601562 -35.269531 4.203125 -35.304688 3.859375 -35.453125 C 3.578125 -35.679688 3.398438 -35.972656 3.328125 -36.328125 C 3.253906 -36.691406 3.21875 -37.125 3.21875 -37.625 C 3.21875 -37.726562 3.242188 -37.828125 3.296875 -37.921875 C 3.347656 -38.367188 3.457031 -38.816406 3.625 -39.265625 C 4.125 -40.460938 5.160156 -41.015625 6.734375 -40.921875 C 7.285156 -40.847656 7.71875 -40.625 8.03125 -40.25 C 8.34375 -39.875 8.410156 -39.4375 8.234375 -38.9375 C 7.859375 -37.707031 7.195312 -36.679688 6.25 -35.859375 Z M 6.25 -35.859375 "/></g></g><g transform="translate(227.917579, 139.390533)"><g><path d="M 27.484375 -18 C 28.847656 -19.320312 29.4375 -19.648438 29.25 -18.984375 C 29.070312 -18.328125 28.320312 -17.128906 27 -15.390625 C 25.675781 -13.660156 24.023438 -11.785156 22.046875 -9.765625 C 20.078125 -7.742188 17.992188 -5.988281 15.796875 -4.5 C 13.597656 -3.019531 11.515625 -2.21875 9.546875 -2.09375 C 7.128906 -2.09375 5.1875 -2.8125 3.71875 -4.25 C 2.257812 -5.6875 1.21875 -7.582031 0.59375 -9.9375 C -0.03125 -12.300781 -0.289062 -14.851562 -0.1875 -17.59375 C -0.0625 -20.664062 0.0507812 -23.738281 0.15625 -26.8125 C 0.195312 -28.351562 0.242188 -29.859375 0.296875 -31.328125 C 0.421875 -33.804688 0.507812 -36.28125 0.5625 -38.75 C 0.613281 -39.519531 0.488281 -40.164062 0.1875 -40.6875 C -0.113281 -41.21875 -0.648438 -41.507812 -1.421875 -41.5625 C -2.296875 -41.601562 -3.394531 -41.625 -4.71875 -41.625 C -5.863281 -41.625 -6.847656 -41.625 -7.671875 -41.625 C -8.816406 -41.75 -9.582031 -42.054688 -9.96875 -42.546875 C -10.363281 -43.035156 -10.0625 -43.53125 -9.0625 -44.03125 C -8.363281 -44.300781 -7.519531 -44.445312 -6.53125 -44.46875 C -5.539062 -44.5 -4.570312 -44.488281 -3.625 -44.4375 C -3.03125 -44.382812 -2.507812 -44.359375 -2.0625 -44.359375 C -0.582031 -44.359375 0.316406 -44.585938 0.640625 -45.046875 C 0.960938 -45.515625 1.160156 -46.4375 1.234375 -47.8125 C 1.335938 -49.257812 1.410156 -50.71875 1.453125 -52.1875 C 1.503906 -52.957031 1.566406 -53.734375 1.640625 -54.515625 C 1.640625 -55.660156 1.941406 -56.691406 2.546875 -57.609375 C 3.191406 -58.484375 4.015625 -58.820312 5.015625 -58.625 C 5.890625 -58.40625 6.378906 -57.859375 6.484375 -56.984375 C 6.554688 -55.535156 6.59375 -54.070312 6.59375 -52.59375 C 6.632812 -51.769531 6.632812 -50.945312 6.59375 -50.125 C 6.59375 -49.25 6.613281 -48.335938 6.65625 -47.390625 C 6.613281 -46.097656 6.765625 -45.28125 7.109375 -44.9375 C 7.460938 -44.601562 8.328125 -44.4375 9.703125 -44.4375 C 11.941406 -44.4375 14.160156 -44.4375 16.359375 -44.4375 C 17.359375 -44.4375 20.328125 -44.503906 25.265625 -44.640625 C 30.210938 -44.773438 32.878906 -44.375 33.265625 -43.4375 C 33.648438 -42.507812 30.523438 -41.96875 23.890625 -41.8125 C 19.867188 -41.59375 16.757812 -41.484375 14.5625 -41.484375 C 13.09375 -41.535156 11.769531 -41.5625 10.59375 -41.5625 C 8.625 -41.5625 7.40625 -41.21875 6.9375 -40.53125 C 6.476562 -39.84375 6.273438 -38.460938 6.328125 -36.390625 C 6.273438 -34.617188 6.1875 -32.472656 6.0625 -29.953125 C 5.738281 -24.785156 5.578125 -19.519531 5.578125 -14.15625 C 5.703125 -10.457031 6.363281 -8.054688 7.5625 -6.953125 C 8.757812 -5.859375 10.316406 -5.65625 12.234375 -6.34375 C 14.160156 -7.03125 16.238281 -8.253906 18.46875 -10.015625 C 20.707031 -11.773438 22.925781 -13.664062 25.125 -15.6875 C 25.59375 -16.3125 26.164062 -16.898438 26.84375 -17.453125 C 27.0625 -17.648438 27.273438 -17.832031 27.484375 -18 Z M 27.484375 -18 "/></g></g><g transform="translate(254.909502, 139.390533)"><g><path d="M 36.6875 -18.171875 C 38.8125 -20.535156 39.925781 -21.441406 40.03125 -20.890625 C 40.144531 -20.335938 39.691406 -19.054688 38.671875 -17.046875 C 37.648438 -15.035156 36.066406 -13.320312 33.921875 -11.90625 C 32.347656 -10.925781 30.992188 -10.269531 29.859375 -9.9375 C 28.722656 -9.601562 27.691406 -9.410156 26.765625 -9.359375 C 24.941406 -9.253906 23.550781 -9.773438 22.59375 -10.921875 C 21.632812 -12.078125 20.96875 -13.554688 20.59375 -15.359375 C 20.21875 -17.171875 19.941406 -19.039062 19.765625 -20.96875 C 19.585938 -22.1875 19.425781 -23.285156 19.28125 -24.265625 C 19.050781 -25.804688 18.601562 -26.65625 17.9375 -26.8125 C 17.28125 -26.976562 16.269531 -25.988281 14.90625 -23.84375 C 13.476562 -21.550781 12.226562 -19.019531 11.15625 -16.25 C 10.082031 -13.476562 9.132812 -10.769531 8.3125 -8.125 C 8.257812 -8.019531 8.207031 -7.882812 8.15625 -7.71875 C 7.988281 -7.34375 7.851562 -6.953125 7.75 -6.546875 C 7.425781 -5.453125 7.039062 -4.378906 6.59375 -3.328125 C 6.21875 -2.453125 5.570312 -1.878906 4.65625 -1.609375 C 3.75 -1.335938 2.796875 -1.398438 1.796875 -1.796875 C 1.148438 -2.066406 0.710938 -2.53125 0.484375 -3.1875 C 0.160156 -4.175781 0.0507812 -5.1875 0.15625 -6.21875 C 0.15625 -6.34375 0.15625 -6.429688 0.15625 -6.484375 C 0.375 -10.816406 0.410156 -18.039062 0.265625 -28.15625 C 0.140625 -36.21875 0.078125 -44.890625 0.078125 -54.171875 C 0.078125 -63.453125 0.3125 -72.210938 0.78125 -80.453125 C 1.257812 -88.691406 2.070312 -95.28125 3.21875 -100.21875 C 3.71875 -102.019531 4.539062 -103.632812 5.6875 -105.0625 C 6.832031 -106.5 8.101562 -107.285156 9.5 -107.421875 C 10.90625 -107.554688 12.21875 -106.601562 13.4375 -104.5625 C 14.257812 -102.8125 14.769531 -100.953125 14.96875 -98.984375 C 15.519531 -93.140625 15.023438 -84.164062 13.484375 -72.0625 C 11.953125 -59.957031 10.347656 -49.363281 8.671875 -40.28125 C 7.003906 -31.195312 6.171875 -23.609375 6.171875 -17.515625 C 6.722656 -18.441406 7.273438 -19.429688 7.828125 -20.484375 C 8.597656 -22.023438 9.460938 -23.5625 10.421875 -25.09375 C 11.390625 -26.632812 12.523438 -27.941406 13.828125 -29.015625 C 15.140625 -30.085938 16.734375 -30.757812 18.609375 -31.03125 C 19.878906 -31.226562 21.171875 -31.140625 22.484375 -30.765625 C 23.796875 -30.398438 24.675781 -29.492188 25.125 -28.046875 C 25.664062 -25.523438 25.851562 -22.835938 25.6875 -19.984375 C 25.6875 -16.972656 26.207031 -15.066406 27.25 -14.265625 C 28.300781 -13.460938 29.601562 -13.320312 31.15625 -13.84375 C 32.71875 -14.375 34.5625 -15.816406 36.6875 -18.171875 Z M 8.71875 -95.578125 C 8.445312 -92.453125 8.132812 -87.238281 7.78125 -79.9375 C 7.4375 -72.644531 7.140625 -65.328125 6.890625 -57.984375 C 6.640625 -50.648438 6.515625 -44.550781 6.515625 -39.6875 C 7.109375 -44.070312 7.828125 -49.789062 8.671875 -56.84375 C 9.523438 -63.894531 10.28125 -71.148438 10.9375 -78.609375 C 11.601562 -86.078125 11.9375 -91.679688 11.9375 -95.421875 C 11.894531 -97.398438 11.757812 -98.867188 11.53125 -99.828125 C 11.300781 -100.785156 10.925781 -101.125 10.40625 -100.84375 C 9.882812 -100.570312 9.484375 -99.875 9.203125 -98.75 C 8.929688 -97.632812 8.769531 -96.578125 8.71875 -95.578125 Z M 8.71875 -95.578125 "/></g></g></g><g fill="#30171d" fill-opacity="1"><g transform="translate(151.166049, 165.385937)"><g><path d="M 2.6875 -20.9375 L 6.734375 -20.9375 L 16.90625 -7.921875 L 16.90625 -20.9375 L 21.390625 -20.9375 L 21.390625 0 L 17.359375 0 L 7.1875 -13.015625 L 7.1875 0 L 2.6875 0 Z M 2.6875 -20.9375 "/></g></g></g><g fill="#30171d" fill-opacity="1"><g transform="translate(178.513097, 165.385937)"><g><path d="M 6.578125 -16.75 L 0.59375 -16.75 L 0.59375 -20.9375 L 17.0625 -20.9375 L 17.0625 -16.75 L 11.078125 -16.75 L 11.078125 0 L 6.578125 0 Z M 6.578125 -16.75 "/></g></g></g><g fill="#30171d" fill-opacity="1"><g transform="translate(199.427306, 165.385937)"><g><path d="M 2.6875 -20.9375 L 18.25 -20.9375 L 18.25 -16.75 L 7.1875 -16.75 L 7.1875 -12.71875 L 15.859375 -12.71875 L 15.859375 -8.671875 L 7.1875 -8.671875 L 7.1875 -4.1875 L 18.546875 -4.1875 L 18.546875 0 L 2.6875 0 Z M 2.6875 -20.9375 "/></g></g></g></svg>